# tests\tiler_test_data\generated_objs\cube.obj
v -100.0 100.0 -100.0 1.0 1.0 1.0
v 0.0 0.0 100.0 1.0 1.0 1.0
v 100.0 100.0 -100.0 1.0 1.0 1.0
v 100.0 -100.0 -100.0 1.0 1.0 1.0
v -100.0 -100.0 -100.0 1.0 1.0 1.0
vn -0.0 0.8944271909999159 0.4472135954999579
vn 0.8944271909999159 0.0 0.4472135954999579
vn 0.0 -0.8944271909999159 0.4472135954999579
vn -0.8944271909999159 0.0 0.4472135954999579
vn 0.0 0.0 -1.0
f 1//1 2//1 3//1
f 3//2 2//2 4//2
f 4//3 2//3 5//3
f 5//4 2//4 1//4
f 1//5 3//5 5//5
f 3//5 4//5 5//5
